<svg height="26" xmlns="http://www.w3.org/2000/svg" viewBox="0 0 59.03 26">
  <rect style="fill: #2797d4;" width="59.03" height="26" rx="6" ry="6"/>
  <g style="fill: #fff;">
    <polygon points="19.68 6.5 19.35 11.82 18.89 19.47 13.63 21.2 8.38 19.47 8.17 15.81 10.83 15.81 10.9 17.47 13.63 18.4 16.35 17.47 16.56 14.48 10.7 14.48 10.57 11.82 16.68 11.82 16.88 9.16 7.71 9.16 7.5 6.5 19.68 6.5"/>
    <path d="m35,15.15c-.07,1.03-.46,1.84-1.14,2.44-.69.59-1.59.89-2.72.89-1.23,0-2.2-.41-2.9-1.24-.7-.83-1.06-1.96-1.06-3.41v-.59c0-.92.16-1.73.49-2.44.33-.7.79-1.24,1.39-1.62s1.3-.56,2.1-.56c1.11,0,2,.3,2.67.89.68.59,1.07,1.42,1.17,2.5h-1.98c-.05-.62-.22-1.07-.52-1.35-.3-.28-.75-.42-1.35-.42-.66,0-1.15.24-1.48.71-.33.47-.49,1.2-.5,2.2v.72c0,1.04.16,1.79.47,2.27.31.48.81.72,1.48.72.61,0,1.07-.14,1.37-.42s.47-.71.52-1.29h1.98Z"/>
    <path d="m41.26,15.83c0-.37-.13-.66-.4-.86s-.74-.41-1.42-.63c-.69-.22-1.23-.44-1.63-.65-1.09-.59-1.63-1.38-1.63-2.38,0-.52.15-.98.44-1.39.29-.41.71-.72,1.26-.95.55-.23,1.16-.34,1.84-.34s1.29.12,1.83.37c.54.25.95.6,1.25,1.05.3.45.44.97.44,1.54h-1.98c0-.44-.14-.78-.42-1.02s-.67-.37-1.17-.37-.86.1-1.13.31c-.27.2-.4.47-.4.81,0,.31.16.57.47.78.31.21.78.41,1.39.59,1.12.34,1.94.76,2.46,1.26s.77,1.12.77,1.87c0,.83-.31,1.48-.94,1.95-.63.47-1.47.71-2.53.71-.74,0-1.41-.14-2.01-.41-.61-.27-1.07-.64-1.39-1.11-.32-.47-.48-1.01-.48-1.63h1.98c0,1.06.63,1.59,1.9,1.59.47,0,.84-.1,1.1-.29.26-.19.4-.46.4-.8Z"/>
    <path d="m49.55,15.83c0-.37-.13-.66-.4-.86s-.74-.41-1.42-.63c-.69-.22-1.23-.44-1.63-.65-1.09-.59-1.63-1.38-1.63-2.38,0-.52.15-.98.44-1.39.29-.41.71-.72,1.26-.95.55-.23,1.16-.34,1.84-.34s1.29.12,1.83.37c.54.25.95.6,1.25,1.05.3.45.44.97.44,1.54h-1.98c0-.44-.14-.78-.42-1.02s-.67-.37-1.17-.37-.86.1-1.13.31c-.27.2-.4.47-.4.81,0,.31.16.57.47.78.31.21.78.41,1.39.59,1.12.34,1.94.76,2.46,1.26s.77,1.12.77,1.87c0,.83-.31,1.48-.94,1.95-.63.47-1.47.71-2.53.71-.74,0-1.41-.14-2.01-.41-.61-.27-1.07-.64-1.39-1.11-.32-.47-.48-1.01-.48-1.63h1.98c0,1.06.63,1.59,1.9,1.59.47,0,.84-.1,1.1-.29.26-.19.4-.46.4-.8Z"/>
  </g>
</svg>