<?xml version="1.0" encoding="UTF-8"?>
<svg id="Capa_2" data-name="Capa 2" xmlns="http://www.w3.org/2000/svg" viewBox="0 0 26 26">
  <defs>
    <style>
      .cls-1 {
        fill: #fff;
      }

      .cls-2 {
        fill: #4e5fa9;
      }
    </style>
  </defs>
  <rect class="cls-2" width="26" height="26" rx="6" ry="6"/>
  <path class="cls-1" d="m21.6,15.06c-.06-1.2-.28-2.37-.65-3.51-.41-1.25-.99-2.4-1.67-3.52-.19-.31-.41-.53-.77-.64-.97-.32-1.94-.64-2.93-.84-.13-.03-.2,0-.25.11-.12.21-.24.42-.33.65-.04.1-.1.14-.22.12-.54-.09-1.09-.12-1.64-.13-.66-.01-1.33.04-1.98.14-.1.01-.16-.02-.2-.11-.08-.19-.17-.37-.27-.55-.15-.27-.09-.29-.46-.21-1.03.23-2.05.55-3.04.92-.14.05-.25.13-.33.26-.46.71-.88,1.45-1.24,2.23-.86,1.86-1.3,3.82-1.29,5.98-.01.32.02.76.05,1.19.01.12.06.2.16.27.42.29.85.57,1.3.83.87.5,1.79.91,2.76,1.19.17.05.23.03.33-.12.26-.37.49-.76.71-1.15.07-.11.04-.15-.07-.19-.34-.13-.68-.29-1-.46-.37-.21-.32-.16-.03-.42.06-.05.12-.05.19-.01.6.34,1.25.54,1.92.68,1.29.26,2.59.29,3.89.13.88-.11,1.73-.32,2.52-.73.33-.16.23-.15.5.06.12.09.12.11-.02.19-.37.22-.76.4-1.16.56-.12.04-.13.1-.07.2.23.38.45.76.7,1.12.12.18.15.19.37.13,1.47-.43,2.8-1.14,4.05-2.02.09-.07.13-.14.14-.25.05-.7.07-1.4.03-2.1Zm-10.57-.04c-.65.52-1.44.47-2.02-.13-.69-.71-.6-2.03.18-2.61.75-.56,1.75-.35,2.21.47.17.32.26.68.24.96-.03.54-.21.98-.61,1.31Zm5.72.04c-.67.51-1.52.39-2.06-.28-.63-.79-.45-2.06.38-2.58.74-.46,1.67-.22,2.1.55.16.29.24.59.24.92-.01.56-.21,1.05-.66,1.39Z"/>
</svg>