<svg height="26" xmlns="http://www.w3.org/2000/svg" viewBox="0 0 71.24 26">
  <defs>
    <style>
      .cls-1 {
        fill: #fff;
      }

      .cls-2 {
        fill: #ec642b;
      }

      .cls-3 {
        fill: #4aaa4c;
      }

      .cls-4 {
        fill: #2f7e33;
      }
    </style>
  </defs>
  <path class="cls-4" d="m25.39,16.91s.01,0,.02,0c0,.03,0,.05,0,.08,0-.02-.02-.05-.03-.07Z"/>
  <path class="cls-3" d="m16.57,12.49s-.01.03-.02.04c0-.01.01-.03.02-.04Z"/>
  <path class="cls-4" d="m21.27,10.06s-.02-.01-.03-.02c0,0,.02.01.03.02Z"/>
  <path class="cls-3" d="m21.07,19.64s.02,0,.02-.01c0,0-.02,0-.02.01Z"/>
  <rect class="cls-2" width="71.24" height="26" rx="6" ry="6"/>
  <polygon class="cls-1" points="10.29 9.16 10.48 11.82 19.25 11.82 18.77 19.48 13.54 21.2 8.3 19.48 8.03 15.81 10.69 15.81 10.82 17.48 13.54 18.41 16.28 17.48 16.46 14.48 7.95 14.48 7.5 6.5 19.65 6.5 19.44 9.16 10.29 9.16"/>
  <g>
    <path class="cls-1" d="m35.16,18.09h-2.03v-4.22h-3.95v4.22h-2.03v-9.84h2.03v3.99h3.95v-3.99h2.03v9.84Z"/>
    <path class="cls-1" d="m44.13,9.89h-3.01v8.19h-2.03v-8.19h-2.97v-1.64h8.01v1.64Z"/>
    <path class="cls-1" d="m47.94,8.25l2.53,7.13,2.51-7.13h2.66v9.84h-2.03v-2.69l.2-4.64-2.65,7.33h-1.39l-2.65-7.32.2,4.63v2.69h-2.03v-9.84h2.65Z"/>
    <path class="cls-1" d="m59.44,16.46h4.3v1.63h-6.33v-9.84h2.03v8.21Z"/>
  </g>
</svg>