<svg height="26" xmlns="http://www.w3.org/2000/svg" viewBox="0 0 78 26">
  <rect style="fill: #eedb4c;" width="78" height="26" rx="6" ry="6"/>
  <g style="fill: #323431;">
    <path d="m11.71,8.97h1.96v6.57c0,.6-.13,1.14-.4,1.6s-.64.82-1.13,1.07c-.49.25-1.04.38-1.65.38-1,0-1.79-.26-2.35-.77-.56-.51-.84-1.23-.84-2.17h1.97c0,.47.1.81.29,1.03.2.22.5.33.93.33.37,0,.67-.13.89-.38s.33-.62.33-1.1v-6.57Z"/>
    <path d="m19.3,18.46c-.09-.17-.15-.38-.19-.63-.46.51-1.05.76-1.78.76-.69,0-1.26-.2-1.72-.6s-.68-.9-.68-1.51c0-.75.28-1.32.83-1.72s1.35-.6,2.4-.61h.87v-.4c0-.33-.08-.59-.25-.78-.17-.2-.43-.29-.79-.29-.32,0-.57.08-.75.23-.18.15-.27.36-.27.63h-1.88c0-.41.13-.79.38-1.13.25-.35.61-.62,1.07-.82.46-.2.98-.3,1.55-.3.87,0,1.56.22,2.07.66.51.44.77,1.05.77,1.84v3.06c0,.67.1,1.18.28,1.52v.11h-1.9Zm-1.56-1.31c.28,0,.53-.06.77-.19.23-.12.41-.29.52-.5v-1.21h-.7c-.94,0-1.45.33-1.51.98v.11c0,.23.08.43.24.58.17.15.39.23.68.23Z"/>
    <path d="m24.92,16.16l1.31-4.75h1.97l-2.38,7.05h-1.8l-2.38-7.05h1.97l1.31,4.75Z"/>
    <path d="m33.01,18.46c-.09-.17-.15-.38-.19-.63-.46.51-1.05.76-1.78.76-.69,0-1.26-.2-1.72-.6s-.68-.9-.68-1.51c0-.75.28-1.32.83-1.72s1.35-.6,2.4-.61h.87v-.4c0-.33-.08-.59-.25-.78-.17-.2-.43-.29-.79-.29-.32,0-.57.08-.75.23-.18.15-.27.36-.27.63h-1.88c0-.41.13-.79.38-1.13.25-.35.61-.62,1.07-.82.46-.2.98-.3,1.55-.3.87,0,1.56.22,2.07.66.51.44.77,1.05.77,1.84v3.06c0,.67.1,1.18.28,1.52v.11h-1.9Zm-1.56-1.31c.28,0,.53-.06.77-.19.23-.12.41-.29.52-.5v-1.21h-.7c-.94,0-1.45.33-1.51.98v.11c0,.23.08.43.24.58.17.15.39.23.68.23Z"/>
    <path d="m41.13,15.97c0-.37-.13-.65-.39-.85s-.73-.41-1.41-.63c-.68-.22-1.21-.44-1.61-.65-1.08-.58-1.62-1.37-1.62-2.35,0-.51.14-.97.43-1.37.29-.4.7-.72,1.25-.94s1.15-.34,1.82-.34,1.28.12,1.81.37.94.59,1.24,1.04c.29.45.44.96.44,1.53h-1.96c0-.43-.14-.77-.41-1.01s-.66-.36-1.15-.36-.85.1-1.11.3c-.27.2-.4.47-.4.8,0,.31.16.57.47.78.31.21.77.4,1.37.59,1.11.33,1.92.75,2.43,1.25.51.5.76,1.11.76,1.85,0,.82-.31,1.47-.93,1.93s-1.46.7-2.51.7c-.73,0-1.4-.13-1.99-.4-.6-.27-1.06-.63-1.37-1.1-.31-.46-.47-1-.47-1.62h1.96c0,1.05.63,1.57,1.88,1.57.46,0,.83-.09,1.09-.28s.39-.45.39-.79Z"/>
    <path d="m47.22,17.07c.35,0,.63-.1.85-.29s.33-.45.34-.76h1.77c0,.48-.13.92-.39,1.31-.26.4-.61.71-1.05.93-.45.22-.94.33-1.48.33-1.01,0-1.8-.32-2.39-.96s-.87-1.53-.87-2.66v-.12c0-1.09.29-1.95.87-2.6.58-.65,1.37-.97,2.38-.97.88,0,1.59.25,2.12.75.53.5.8,1.17.81,2h-1.77c0-.37-.12-.67-.34-.9-.22-.23-.5-.34-.86-.34-.44,0-.77.16-.99.48-.22.32-.34.84-.34,1.56v.2c0,.73.11,1.25.33,1.57s.56.48,1.01.48Z"/>
    <path d="m55.22,13.18c-.26-.03-.48-.05-.68-.05-.71,0-1.18.24-1.4.72v4.62h-1.88v-7.05h1.78l.05.84c.38-.65.9-.97,1.57-.97.21,0,.4.03.59.08l-.03,1.81Z"/>
    <path d="m56.11,9.58c0-.28.09-.52.28-.7s.45-.27.77-.27.58.09.77.27c.19.18.29.42.29.7s-.1.52-.29.7c-.19.18-.45.27-.77.27s-.57-.09-.77-.27c-.19-.18-.29-.42-.29-.7Zm2,8.88h-1.89v-7.05h1.89v7.05Z"/>
    <path d="m66.01,15c0,1.09-.25,1.96-.74,2.61-.49.65-1.16.98-2,.98-.71,0-1.29-.25-1.73-.74v3.32h-1.88v-9.77h1.75l.07.69c.46-.55,1.05-.82,1.79-.82.87,0,1.54.32,2.03.96s.72,1.53.72,2.66v.1Zm-1.88-.14c0-.66-.12-1.16-.35-1.52-.23-.36-.57-.53-1.01-.53-.59,0-1,.23-1.22.68v2.89c.23.46.64.7,1.23.7.9,0,1.35-.74,1.35-2.21Z"/>
    <path d="m69.44,9.68v1.73h1.21v1.38h-1.21v3.52c0,.26.05.45.15.56.1.11.29.17.57.17.21,0,.39-.02.55-.05v1.43c-.37.11-.75.17-1.14.17-1.32,0-2-.67-2.02-2v-3.8h-1.03v-1.38h1.03v-1.73h1.88Z"/>
  </g>
</svg>