<?xml version="1.0" encoding="UTF-8"?>
<svg id="Capa_2" data-name="Capa 2" xmlns="http://www.w3.org/2000/svg" viewBox="0 0 52.98 26">
  <defs>
    <style>
      .cls-1 {
        fill: #36464e;
      }

      .cls-2 {
        fill: #fffffe;
      }

      .cls-3 {
        fill: #81bb27;
      }
    </style>
  </defs>
  <rect class="cls-3" width="52.98" height="26" rx="6" ry="6"/>
  <g>
    <path class="cls-1" d="m7.58,13.34c.49-.48,1.14-.7,1.71-1.04.76-.44,1.53-.85,2.3-1.28.2-.11.39-.11.59,0,1.13.63,2.27,1.26,3.41,1.89.09.05.17.11.27.15.25.1.34.29.34.55,0,.02,0,.03,0,.05,0,1.87,0,3.74,0,5.61,0,.18-.06.26-.21.27-.03,0-.07,0-.1-.02-.6-.38-1.22-.72-1.83-1.07-.15-.09-.21-.22-.21-.39,0-1.09,0-2.18,0-3.26,0-.19-.06-.29-.23-.38-.42-.22-.83-.45-1.24-.68-.11-.06-.24-.1-.34-.18-.13-.1-.27-.04-.38.03-.34.2-.69.37-1.03.58-.16.1-.32.19-.5.26-.16.07-.21.18-.21.35,0,1.08,0,2.16,0,3.24,0,.21-.09.35-.27.46-.58.33-1.15.67-1.73,1.01-.12.07-.24.08-.36,0v-6.13Z"/>
    <path class="cls-1" d="m35.63,12.41c0,1.74,0,3.47,0,5.21,0,.36-.13.56-.44.72-.51.26-1,.55-1.5.83-.4.22-.81.44-1.21.66-.3.16-.59.33-.89.49-.19.11-.37.11-.56,0-.79-.44-1.58-.88-2.37-1.31-.43-.24-.85-.47-1.28-.71-.07-.04-.15-.07-.21-.13-.12-.11-.16-.25-.16-.41,0-1.34,0-2.68,0-4.01,0-.07-.01-.15,0-.22.04-.15.13-.26.26-.34.59-.33,1.18-.65,1.78-.98.63-.35,1.26-.68,1.88-1.04.26-.15.49-.16.76,0,.49.29.99.55,1.48.83.08.05.1.03.1-.06,0-.04,0-.07,0-.11,0-1.98,0-3.97,0-5.95,0-.05,0-.09,0-.14.02-.15.14-.22.27-.16.2.1.39.21.58.31.3.17.61.34.91.51.14.08.29.15.43.24.13.08.16.22.17.36,0,.13,0,.27,0,.4,0,1.67,0,3.34,0,5.01Zm-2.35,3.31c0-.3,0-.6,0-.9,0-.12-.05-.2-.15-.26-.08-.05-.16-.09-.23-.13-.45-.27-.93-.48-1.37-.77-.13-.09-.25-.09-.39,0-.25.16-.51.31-.78.45-.29.16-.58.31-.87.48-.09.05-.12.12-.12.22,0,.61,0,1.23,0,1.84,0,.12.06.2.16.25.24.15.51.26.75.41.3.18.61.34.91.51.1.05.18.05.28,0,.56-.31,1.11-.61,1.67-.92.1-.06.16-.14.16-.27,0-.3,0-.6,0-.9Z"/>
    <path class="cls-2" d="m25.9,17.87c-.04.24-.25.39-.42.49-.05,0-3.41,1.9-3.7,2.05-.04.02-.18.06-.27.01,0,0-3.58-1.92-3.83-2.07-.14-.08-.29-.13-.36-.29-.02-.07-.02-4.55,0-4.57.02-.14.13-.21.23-.28.65-.35,3.17-1.75,3.79-2.08.16-.1.34-.11.5,0,0,0,.02,0,.03.02.25.11,2.72,1.49,3.73,2.05.16.1.28.21.29.41,0,.02,0,4.24,0,4.27Z"/>
    <g>
      <path class="cls-1" d="m45.39,15.22c-.58.49-1.29.78-1.92,1.19-.04.02-.07.04-.11.06-.17.09-.3.02-.31-.18,0-.07,0-.14,0-.21,0-.42,0-.84,0-1.26,0-.12-.03-.2-.14-.26-.43-.24-.85-.49-1.3-.7-.1-.05-.2-.11-.3-.18-.17-.12-.28-.11-.47,0-.18.1-.37.2-.55.3-.34.19-.69.38-1.04.57-.08.05-.12.11-.12.21,0,.63,0,1.26,0,1.89,0,.11.05.18.14.23.35.2.71.39,1.07.58.47.26.94.52,1.42.77.43.23.85.48,1.29.69.1.05.17.11.17.23,0,.11-.06.18-.15.23-.31.17-.63.35-.94.52-.24.13-.48.26-.72.4-.21.13-.4.13-.62,0-.18-.1-.37-.18-.54-.28-.44-.28-.9-.51-1.34-.76-.61-.35-1.23-.68-1.85-1.02-.19-.1-.26-.27-.26-.47,0-.9,0-1.8,0-2.7,0-.49,0-.97,0-1.46,0-.18.09-.33.25-.42.36-.2.72-.4,1.09-.6.78-.43,1.55-.86,2.33-1.29.1-.06.21-.11.31-.17.25-.16.48-.11.71.03.34.2.68.38,1.02.57.34.19.67.38,1.01.56.31.17.63.35.94.52.24.13.47.26.71.39.11.06.16.18.24.25v1.76Z"/>
      <path class="cls-2" d="m41.8,15.72s0,.03,0,.05q0,.35-.31.52c-.1.05-.21.11-.31.17-.07.04-.13.05-.21,0-.17-.1-.35-.2-.53-.3-.06-.03-.08-.07-.08-.13,0-.21,0-.42,0-.63,0-.06.01-.1.07-.13.19-.1.37-.2.55-.31.05-.03.09-.03.14,0,.2.11.39.22.59.32.05.03.07.07.07.13,0,.1,0,.2,0,.3Z"/>
    </g>
  </g>
</svg>