<svg height="26" xmlns="http://www.w3.org/2000/svg" viewBox="0 0 42.25 26">
  <rect style="fill: #8694c1;" width="42.25" height="26" rx="6" ry="6"/>
  <g style="fill: #fff;">
    <path d="m31.65,10.01h-4.54l-1.71,9.4h2.23l.48-2.55h1.39c2.95,0,4.54-.72,5.14-3.22.52-2.15-.8-3.62-2.99-3.62Zm-1.79,5.14h-1.43l.64-3.42h1.75c1.47,0,1.75.68,1.67,1.39-.2,1.87-1.35,2.03-2.63,2.03Z"/>
    <path d="m25.56,12.76l-.88,4.1h-2.27l.8-3.78c.12-.52.08-.88-.12-1.07-.16-.2-.56-.28-1.11-.28h-1.79l-1.07,5.14h-2.23l2.11-10.27h2.27l-.72,3.42h1.99c1.27,0,2.11.2,2.59.64s.64,1.15.44,2.11Z"/>
    <path d="m13.74,10.01h-4.54l-1.75,9.4h2.27l.44-2.55h1.43c2.95,0,4.54-.72,5.14-3.22.52-2.15-.8-3.62-2.99-3.62Zm-1.79,5.14h-1.47l.64-3.42h1.79c1.43,0,1.75.68,1.67,1.39-.2,1.87-1.35,2.03-2.63,2.03Z"/>
  </g>
</svg>