<?xml version="1.0" encoding="UTF-8"?>
<svg id="Capa_2" data-name="Capa 2" xmlns="http://www.w3.org/2000/svg" viewBox="0 0 42.25 26">
  <defs>
    <style>
      .cls-1 {
        fill: #fff;
      }

      .cls-2 {
        fill: #8694c1;
      }

      .cls-3 {
        fill: #4aaa4c;
      }

      .cls-4 {
        fill: #2f7e33;
      }
    </style>
  </defs>
  <path class="cls-4" d="m25.39,16.91s.01,0,.02,0c0,.03,0,.05,0,.08,0-.02-.02-.05-.03-.07Z"/>
  <path class="cls-3" d="m16.57,12.49s-.01.03-.02.04c0-.01.01-.03.02-.04Z"/>
  <path class="cls-4" d="m21.27,10.06s-.02-.01-.03-.02c0,0,.02.01.03.02Z"/>
  <path class="cls-3" d="m21.07,19.64s.02,0,.02-.01c0,0-.02,0-.02.01Z"/>
  <rect class="cls-2" width="42.25" height="26" rx="6" ry="6"/>
  <g>
    <path class="cls-1" d="m31.65,10.01h-4.54l-1.71,9.4h2.23l.48-2.55h1.39c2.95,0,4.54-.72,5.14-3.22.52-2.15-.8-3.62-2.99-3.62Zm-1.79,5.14h-1.43l.64-3.42h1.75c1.47,0,1.75.68,1.67,1.39-.2,1.87-1.35,2.03-2.63,2.03Z"/>
    <path class="cls-1" d="m25.56,12.76l-.88,4.1h-2.27l.8-3.78c.12-.52.08-.88-.12-1.07-.16-.2-.56-.28-1.11-.28h-1.79l-1.07,5.14h-2.23l2.11-10.27h2.27l-.72,3.42h1.99c1.27,0,2.11.2,2.59.64s.64,1.15.44,2.11Z"/>
    <path class="cls-1" d="m13.74,10.01h-4.54l-1.75,9.4h2.27l.44-2.55h1.43c2.95,0,4.54-.72,5.14-3.22.52-2.15-.8-3.62-2.99-3.62Zm-1.79,5.14h-1.47l.64-3.42h1.79c1.43,0,1.75.68,1.67,1.39-.2,1.87-1.35,2.03-2.63,2.03Z"/>
  </g>
</svg>