<svg height="26" xmlns="http://www.w3.org/2000/svg" viewBox="0 0 30 26">
  <rect style="fill: #233877;" x="0" width="26" height="26" rx="6" ry="6"/>
  <path style="fill: #6b331f;" d="m19.8,8.11h-3.93l-.34-1.35c-.12-.49-.56-.82-1.06-.82h-2.96c-.5,0-.93.34-1.06.82l-.34,1.35h-3.93c-.6,0-1.09.49-1.09,1.09v9.79c0,.6.49,1.09,1.09,1.09h13.59c.6,0,1.09-.49,1.09-1.09v-9.79c0-.6-.49-1.09-1.09-1.09Zm-8.55,0l.27-1.09h2.96l.27,1.09h-3.5Z"/>
  <path style="fill: #572615;" d="m20.88,9.19c0-.6-.49-1.09-1.09-1.09H6.2c-.6,0-1.09.49-1.09,1.09v.63l1.35,4.05c.26.78.98,1.3,1.81,1.3h9.46c.82,0,1.55-.52,1.81-1.3l1.35-4.05v-.63Z"/>
  <path style="fill: #8c4a32;" d="m5.29,8.62l1.7,5.09c.19.56.7.93,1.29.93h9.46c.59,0,1.1-.37,1.29-.93l1.7-5.09c-.19-.3-.53-.51-.92-.51H6.2c-.39,0-.73.2-.92.51Z"/>
  <path style="fill: #df8743;" d="m13.54,16.26h-1.09c-.15,0-.27-.12-.27-.27v-2.17c0-.15.12-.27.27-.27h1.09c.15,0,.27.12.27.27v2.17c0,.15-.12.27-.27.27Z"/>
  <path style="fill: #fed371;" d="m13.54,15.17h-1.09c-.15,0-.27-.12-.27-.27v-1.09c0-.15.12-.27.27-.27h1.09c.15,0,.27.12.27.27v1.09c0,.15-.12.27-.27.27Z"/>
</svg>