<svg height="26" xmlns="http://www.w3.org/2000/svg" viewBox="0 0 74.88 26">
  <rect style="fill: #54c3ea;" width="74.88" height="26" rx="6" ry="6"/>
  <g class="fill: #202020;">
    <path d="m24.58,11.89c-.19-.36-.46-.64-.78-.88-.72-.55-1.53-.91-2.39-1.17-.18-.05-.24-.11-.19-.32.14-.6.22-1.21.22-1.63,0-.8-.06-1.39-.3-1.95-.27-.64-.8-.99-1.49-.98-.32,0-.63.08-.93.19-.92.34-1.69.92-2.4,1.58-.12.12-.19.1-.29,0-.36-.34-.74-.65-1.15-.92-.61-.39-1.24-.72-1.97-.82-.74-.1-1.37.23-1.7.91-.21.43-.29.88-.31,1.35-.04.79.06,1.57.24,2.33.04.14,0,.18-.13.22-.5.15-1,.33-1.46.57-.63.31-1.21.68-1.63,1.25-.48.63-.49,1.27-.06,1.93.24.38.57.67.93.92.67.47,1.42.8,2.21,1.03.14.04.17.1.14.23-.11.41-.18.82-.22,1.24-.06.72-.06,1.44.18,2.13.31.9,1.01,1.31,1.95,1.16.41-.07.8-.21,1.17-.4.68-.34,1.28-.79,1.83-1.3.11-.1.18-.14.31,0,.23.23.49.44.75.64.65.5,1.35.91,2.17,1.07.86.15,1.5-.18,1.87-.96.2-.42.28-.87.31-1.33.05-.75-.03-1.5-.21-2.24-.05-.18,0-.25.17-.3.21-.05.41-.13.6-.21.85-.34,1.65-.76,2.27-1.45.52-.59.63-1.26.29-1.9Zm-7.79-4.59c.65-.59,1.33-1.13,2.16-1.44.2-.07.39-.13.6-.14.45-.03.71.11.9.52.22.47.25.98.25,1.46,0,.59-.09,1.15-.21,1.69-.03.14-.07.2-.23.16-.65-.15-1.3-.24-1.95-.31-.13-.01-.21-.07-.28-.17-.38-.54-.79-1.06-1.23-1.54-.07-.07-.1-.14,0-.22Zm-4.18,6.26c.11.06.13.15.17.23.24.44.49.88.76,1.3.03.05.09.1.05.15-.03.04-.1.02-.15,0-.39-.06-.79-.12-1.19-.18-.12-.02-.18-.06-.13-.21.14-.44.31-.87.49-1.31Zm-.38-2.82c-.16-.46-.16-.47.33-.55.34-.06.68-.14,1.07-.15-.36.57-.67,1.13-.99,1.72-.14-.25-.21-.49-.3-.72-.04-.1-.07-.2-.11-.29Zm.85,2.02c-.04-.08-.04-.14,0-.22.42-.87.9-1.7,1.44-2.5.05-.07.11-.12.2-.12.96-.06,1.93-.07,2.89,0,.1,0,.15.06.2.13.53.79.99,1.61,1.42,2.45.06.1.06.19,0,.29-.42.84-.89,1.65-1.4,2.44-.07.1-.14.15-.27.15-.49,0-.97,0-1.46,0h0c-.45,0-.9,0-1.36,0-.12,0-.19-.05-.25-.14-.54-.79-1.01-1.63-1.44-2.48Zm5.7,2.37c.31-.5.6-1.02.89-1.54,0-.02.02-.03.06-.07.22.47.38.92.53,1.37.03.09,0,.14-.09.15-.43.08-.86.17-1.3.22-.09,0-.17,0-.09-.12Zm.93-3.36c-.33-.6-.65-1.15-.99-1.71.2-.03.36.01.53.05.29.05.58.11.87.16.07.01.14.03.11.12-.14.45-.3.9-.52,1.38Zm-3.61-3.75c.06-.06.1-.07.16,0,.29.32.57.65.82,1,.05.06.1.13-.04.13h-1.87c.3-.43.61-.79.93-1.13Zm-4.39-1.33c.03-.16.09-.32.16-.48.16-.33.42-.5.79-.48.55.02,1.03.24,1.49.51.5.29.94.64,1.37,1.02.11.1.13.16.02.28-.46.49-.87,1.01-1.25,1.56-.07.09-.14.13-.24.14-.68.07-1.35.17-2.02.31-.11.02-.15,0-.17-.11-.21-.91-.33-1.82-.14-2.75Zm-.28,7.96c-.05.18-.13.21-.3.14-.77-.26-1.51-.57-2.16-1.09-.25-.2-.46-.43-.61-.72-.16-.32-.08-.61.11-.89.27-.38.64-.64,1.03-.87.54-.31,1.12-.53,1.72-.71.02,0,.05-.01.07-.01.08,0,.09.05.1.09.22.67.48,1.33.77,1.97.03.08.01.14-.02.22-.27.61-.53,1.22-.72,1.86Zm4.15,3.37c-.64.58-1.32,1.1-2.14,1.4-.24.09-.5.14-.76.15-.38.01-.65-.16-.82-.51-.22-.45-.25-.93-.25-1.42,0-.58.09-1.15.22-1.71.03-.12.06-.19.22-.15.66.14,1.33.24,2.01.29.09,0,.16.04.21.11.41.57.85,1.11,1.32,1.63.07.07.07.13,0,.2Zm.71-.73c-.06.07-.11.08-.17,0-.3-.33-.58-.67-.86-1.02-.07-.09-.04-.12.07-.12h1.71c.12,0,.14.03.07.13-.26.35-.53.69-.82,1.01Zm4.23,1.65c-.21.52-.51.71-1.08.63-.54-.07-1-.33-1.45-.62-.42-.26-.79-.58-1.15-.91-.11-.09-.09-.15,0-.25.46-.51.87-1.05,1.26-1.6.05-.07.1-.11.19-.12.7-.07,1.39-.15,2.07-.31.13-.03.17.02.2.14.12.56.2,1.12.2,1.69,0,.46-.05.92-.22,1.35Zm3.14-5.53c-.5.51-1.12.84-1.78,1.11-.24.1-.49.17-.73.27-.11.04-.16,0-.2-.1-.21-.66-.47-1.3-.77-1.93-.03-.07-.04-.13,0-.21.29-.63.55-1.27.76-1.93.02-.09.07-.12.17-.09.92.29,1.8.64,2.51,1.31.23.22.41.46.44.77,0,.34-.18.58-.39.8Z"/>
    <path d="m17.7,12.62c0,.88-.68,1.54-1.58,1.54-.83,0-1.51-.71-1.5-1.54,0-.85.69-1.54,1.53-1.53.86,0,1.55.68,1.54,1.54Z"/>
    <path d="m35.99,14.76h-1.64v3.67h-2.06v-10.01h3.72c1.18,0,2.1.26,2.74.79s.96,1.27.96,2.24c0,.68-.15,1.25-.44,1.71s-.74.82-1.34,1.09l2.17,4.09v.1h-2.21l-1.88-3.67Zm-1.64-1.67h1.66c.52,0,.92-.13,1.2-.4s.43-.63.43-1.09-.13-.84-.4-1.11-.68-.41-1.23-.41h-1.66v3.01Z"/>
    <path d="m44.56,18.56c-1.09,0-1.98-.33-2.67-1s-1.03-1.56-1.03-2.68v-.19c0-.75.14-1.42.43-2s.7-1.04,1.23-1.36,1.13-.48,1.81-.48c1.02,0,1.82.32,2.4.96s.88,1.55.88,2.73v.81h-4.74c.06.49.26.88.58,1.17s.73.44,1.23.44c.77,0,1.36-.28,1.8-.83l.98,1.09c-.3.42-.7.75-1.21.99s-1.07.35-1.69.35Zm-.23-6.11c-.39,0-.71.13-.96.4s-.4.65-.47,1.15h2.76v-.16c0-.44-.13-.78-.36-1.03s-.55-.36-.98-.36Z"/>
    <path d="m53.06,18.43c-.09-.18-.16-.4-.2-.67-.48.54-1.11.8-1.88.8-.73,0-1.33-.21-1.81-.63s-.72-.95-.72-1.6c0-.79.29-1.39.88-1.82s1.43-.64,2.53-.64h.91v-.43c0-.34-.09-.62-.26-.83s-.46-.31-.84-.31c-.33,0-.6.08-.79.24s-.29.38-.29.66h-1.99c0-.43.13-.83.4-1.2s.64-.65,1.13-.86,1.03-.31,1.64-.31c.92,0,1.64.23,2.18.69s.81,1.11.81,1.94v3.23c0,.71.1,1.24.3,1.6v.12h-2.01Zm-1.64-1.38c.29,0,.56-.07.81-.2s.43-.31.55-.53v-1.28h-.74c-1,0-1.52.34-1.59,1.03v.12c0,.25.08.45.25.61s.41.24.72.24Z"/>
    <path d="m59.4,16.96c.37,0,.66-.1.89-.3s.35-.47.36-.8h1.86c0,.5-.14.97-.41,1.39s-.64.75-1.11.98-.99.35-1.56.35c-1.06,0-1.9-.34-2.52-1.01s-.92-1.61-.92-2.8v-.13c0-1.15.3-2.06.91-2.74s1.45-1.02,2.51-1.02c.93,0,1.68.26,2.24.79s.85,1.23.86,2.11h-1.86c0-.39-.13-.7-.36-.94-.23-.24-.53-.36-.91-.36-.46,0-.81.17-1.05.51-.24.34-.35.89-.35,1.64v.21c0,.77.12,1.32.35,1.65s.59.5,1.07.5Z"/>
    <path d="m66.03,9.15v1.83h1.27v1.46h-1.27v3.71c0,.28.05.47.16.59s.31.18.61.18c.22,0,.41-.02.58-.05v1.51c-.39.12-.79.18-1.2.18-1.39,0-2.1-.7-2.13-2.11v-4.01h-1.09v-1.46h1.09v-1.83h1.99Z"/>
  </g>
</svg>